<svg width="1920" height="640" viewBox="0 0 1920 640" xmlns="http://www.w3.org/2000/svg">
  <defs>
    <!-- Base gradient -->
    <linearGradient id="bg" x1="0" y1="0" x2="0" y2="1">
      <stop offset="0%" stop-color="#0C1A3C"></stop>
      <stop offset="100%" stop-color="#20408C"></stop>
    </linearGradient>

    <!-- Soft white glow -->
    <filter id="glow" x="-30%" y="-50%" width="160%" height="200%">
      <feGaussianBlur stdDeviation="90" result="b"></feGaussianBlur>
      <feComponentTransfer>
        <feFuncA type="linear" slope="0.35"></feFuncA>
      </feComponentTransfer>
      <feMerge><feMergeNode in="b"></feMergeNode></feMerge>
    </filter>

    <!-- Vignette -->
    <radialGradient id="vign" cx="50%" cy="50%" r="65%">
      <stop offset="55%" stop-color="rgba(0,0,0,0)"></stop>
      <stop offset="100%" stop-color="rgba(0,0,0,0.33)"></stop>
    </radialGradient>

    <style>
      .edge { stroke:#fff; stroke-width:3; fill:none; opacity:.18; }
    </style>
  </defs>

  <!-- Background -->
  <rect width="1920" height="640" fill="url(#bg)"></rect>

  <!-- Subtle highlight (top-right) -->
  <ellipse cx="1480" cy="40" rx="720" ry="420" fill="#fff" filter="url(#glow)" opacity="0.25"></ellipse>

  <!-- Edge arcs (top-right) -->
  <g class="edge">
    <path d="M1460,20 A420,420 0 0 1 1030,110"></path>
    <path d="M1460,20 A360,360 0 0 1 1080,120"></path>
    <path d="M1460,20 A300,300 0 0 1 1140,130"></path>
  </g>

  <!-- Edge arcs (bottom-left) -->
  <g class="edge">
    <path d="M230,610 A560,360 0 0 0 640,520"></path>
    <path d="M230,610 A520,320 0 0 0 640,540"></path>
    <path d="M230,610 A480,280 0 0 0 640,560"></path>
  </g>

  <!-- Gentle center glaze to keep text readable -->
  <ellipse cx="960" cy="320" rx="480" ry="220" fill="#0A1432" opacity=".12"></ellipse>

  <!-- Soft vignette -->
  <rect width="1920" height="640" fill="url(#vign)"></rect>
</svg>
